<?xml version="1.0" standalone="no"?><!DOCTYPE svg PUBLIC "-//W3C//DTD SVG 1.1//EN" "http://www.w3.org/Graphics/SVG/1.1/DTD/svg11.dtd"><svg class="icon" width="16px" height="16.00px" viewBox="0 0 1024 1024" version="1.1" xmlns="http://www.w3.org/2000/svg"><path fill="#dedede" d="M886.696868 273.568632C808.208259 148.07957 668.457378 64.565505 509.125533 64.565505c-245.530043 0-444.569238 198.317765-444.569238 442.958554 0 89.693812 26.756387 173.157735 72.749908 242.907309C215.794811 875.92043 355.545692 959.434495 514.877537 959.434495c245.527996 0 444.567191-198.317765 444.567191-442.958554C959.443705 426.781106 932.690388 343.318206 886.696868 273.568632zM787.008424 433.255565c-26.0237 24.938995-210.079646 202.154139-296.379151 295.307749-31.205723 33.683147-59.277058 0-59.277058 0S271.397177 569.183374 258.922051 556.753273c-25.816992-29.067013 14.435781-78.136591 54.277184-34.514071 61.289901 61.071937 147.794068 147.261948 147.794068 147.261948S661.653415 469.567585 747.951897 383.579165C774.680655 357.887017 822.22653 399.50795 787.008424 433.255565z" /></svg>
