<?xml version="1.0" standalone="no"?><!DOCTYPE svg PUBLIC "-//W3C//DTD SVG 1.1//EN" "http://www.w3.org/Graphics/SVG/1.1/DTD/svg11.dtd"><svg class="icon" width="20px" height="20.00px" viewBox="0 0 1024 1024" version="1.1" xmlns="http://www.w3.org/2000/svg"><path fill="#49afcd" d="M510.791 527.801c-31.469 0-56.967 25.497-56.967 56.969 0 16.87 7.334 32.023 18.989 42.453v52.487c0 20.977 17.003 37.981 37.98 37.981 20.973 0 37.98-17.004 37.98-37.981v-52.487c11.655-10.431 18.99-25.583 18.99-42.453-0.001-31.472-25.502-56.969-56.971-56.969v0zM776.65 356.902h-37.981v-94.944c0-125.859-102.013-227.868-227.877-227.868s-227.877 102.009-227.877 227.868v94.944h-37.98c-52.446 0-94.948 42.503-94.948 94.944v360.794c0 52.437 42.503 94.94 94.948 94.94h531.713c52.425 0 94.948-42.499 94.948-94.94v-360.794c0.001-52.443-42.524-94.944-94.947-94.944v0zM510.791 72.069c104.87 0 189.898 85.022 189.898 189.888v94.944h-379.77v-94.944h-0.026c0-104.866 85.028-189.888 189.898-189.888v0zM833.617 812.636c0 31.469-25.5 56.964-56.967 56.964h-531.713c-31.47 0-56.969-25.495-56.969-56.964v-360.789c0-31.47 25.5-56.969 56.969-56.969h531.713c31.469 0 56.967 25.5 56.967 56.969v360.789zM833.617 812.636z" /></svg>
