<?xml version="1.0" standalone="no"?><!DOCTYPE svg PUBLIC "-//W3C//DTD SVG 1.1//EN" "http://www.w3.org/Graphics/SVG/1.1/DTD/svg11.dtd"><svg class="icon" width="25px" height="25.00px" viewBox="0 0 1024 1024" version="1.1" xmlns="http://www.w3.org/2000/svg"><path fill="#ffffff" d="M762.829 454.914 762.829 307.208c0-135.399-109.785-245.184-245.184-245.184-1.686 0-2.906-0.098-4.566-0.049-1.368-0.024-3.102 0.073-4.493 0.073-135.43 0-245.166 109.785-245.166 245.184l0 147.682-86.782 0 0 507.125 675.268 0L851.906 454.914 762.829 454.914zM590.924 869.065 437.785 869.065l37.506-163.944c-22.434-13.356-37.506-37.774-37.506-65.782 0-42.293 34.283-76.576 76.563-76.576 42.292 0 76.575 34.283 76.575 76.576 0 28.117-15.2 52.621-37.787 65.954L590.924 869.065zM640.151 454.914 386.073 454.914 386.073 307.232c0-67.541 54.966-122.482 122.513-122.482 1.929 0 5.982-0.098 5.982-0.098s2.051 0.073 3.077 0.073c67.54 0 122.506 54.941 122.506 122.482L640.151 454.914z" /></svg>
