<?xml version="1.0" standalone="no"?><!DOCTYPE svg PUBLIC "-//W3C//DTD SVG 1.1//EN" "http://www.w3.org/Graphics/SVG/1.1/DTD/svg11.dtd"><svg t="1531062845356" class="icon" style="" viewBox="0 0 1024 1024" version="1.1" xmlns="http://www.w3.org/2000/svg" p-id="7550" xmlns:xlink="http://www.w3.org/1999/xlink" width="32" height="32"><defs><style type="text/css"></style></defs><path d="M499.6864 999.3472C223.7184 999.3472 0 775.6288 0 499.712 0 223.7184 223.7184 0 499.6864 0c275.968 0 499.6608 223.7184 499.6608 499.6864 0 275.968-223.7184 499.6608-499.6608 499.6608z m230.4768-417.8944l-1.024-8.4992-2.1504-9.5488-1.0496-4.2496-1.0752-5.3248-2.0992-4.2496-1.0752-5.2992-2.0992-5.2992-2.1248-5.3248-4.2496-8.4992-3.1744-6.3744-3.1744-7.424-3.1744-5.2992-3.2-5.3248-3.1744-5.2992-5.2992-7.424-6.3488-10.624-1.0752-2.1248-1.0496-1.0752v-1.0496l1.0496-3.2 2.1248-3.1744 1.0752-6.4 1.0496-3.1744V446.592l-1.0496-3.2-1.0752-4.2496-1.0496-5.2992-1.0752-4.2496-2.0992-4.2496-2.1248-3.2-1.0752-4.2496-2.0992-3.1744-2.1248-4.2496-1.0752-2.1248-1.0496-1.0496-1.0496-9.5744-1.0752-5.2992-1.0496-7.424-1.0752-7.424-2.0992-9.5744-1.0752-4.2496-1.0496-4.2496-2.1248-5.2992-1.0496-5.3248-2.1248-4.2496-2.1248-5.2992-4.224-9.5744-2.1248-5.2992-3.1744-5.2992-3.2-4.2496-2.0992-5.3248-4.2496-5.2992-3.1744-4.2496-4.2496-5.3248-4.224-4.224-4.2496-4.2496-5.2992-4.2496-3.1744-2.1248-2.1248-2.1248-5.2992-3.2-6.3488-4.2496-6.3744-4.2496-6.3488-3.1744-7.424-3.1744-7.424-3.2-6.3488-2.1248-8.4736-2.1248-6.3744-2.1248-8.448-2.1248-6.4-1.0496-8.448-1.0752-7.424-1.0496-7.424-1.0752H483.2512l-7.424 1.0752-7.424 1.0496-7.424 2.1248-6.3488 1.0752-7.424 1.0496-6.3488 2.1248-6.3488 3.2-6.3744 2.1248-6.3488 2.1248-6.3488 3.1744-5.2992 3.1744-5.2992 3.2-5.2992 3.1744-5.2992 4.2496-3.2 4.2496-7.424 5.3248-5.2736 6.3488-5.2992 5.3248-4.2496 5.2992-4.224 6.4-4.2496 5.2992-3.1744 5.2992-2.1248 3.2-2.1248 2.0992-3.1744 6.4-3.1744 5.2992-2.1248 4.2496-2.1248 5.2992-2.1248 5.3248-2.0992 4.224-1.0752 5.3248-2.1248 4.2496-2.0992 8.4992-1.0752 7.424-1.0496 6.3744-1.0752 5.2992v11.6992l-2.0992 1.0496-1.0752 2.1248-1.0496 2.1248-1.0752 2.1248-1.024 5.2992-1.0752 4.2496-1.0752 4.2496V431.7184l-3.1744 5.2992-2.1248 4.2496-1.0496 4.2496-1.0752 3.1744-1.024 4.2496-1.0752 3.2V466.7648l1.0496 4.2496 1.0496 3.1744-2.0992 1.0752-4.2496 3.1744-6.3488 6.3744-4.2496 3.1744-3.1744 3.2-3.1744 3.1744-2.1248 2.1248-4.2496 4.2496-4.224 5.3248-3.1744 4.224-4.2496 6.4-4.2496 5.2992-4.224 6.3744-3.1744 5.2992-2.1248 6.3744-3.1744 5.2992-2.1248 6.4-2.1248 5.2992-1.0496 5.2992-2.1248 6.3744-1.0752 4.2496-1.024 5.2992-1.0752 5.3248-1.0752 5.2992V614.4l2.1248 7.424v2.1248l1.0496 3.2 1.0752 3.1744 1.0496 2.1248 1.0752 3.1744 1.0496 1.0752 1.0496 1.0496v1.0752h1.0752l4.224-1.0752 3.2-1.0496 3.1744-1.0752 4.224-2.1248 3.2-2.0992 2.0992-2.1248 3.2-3.2 3.1744-3.1744 2.1248-3.2 2.0992-3.1744 2.1248-2.1248 1.0752-3.2 3.1744-4.2496v-2.1248l1.0496-1.0496v-2.1248h1.0752l1.024-1.0496v1.0496h1.0752l2.1248 6.3744 1.0752 5.2992 2.0992 5.3248 2.1248 4.2496 2.1248 5.2992 2.1248 4.2496 2.1248 4.2496 2.0992 4.2496 3.1744 3.1744 1.0752 3.2 5.2992 6.3744 5.2992 5.2992 4.224 4.2496 4.2496 4.2496 3.1744 3.1744 5.2992 4.2496 2.1248 1.0752 1.0496 1.0496v1.0752h-1.0496l-1.0496 1.0496H335.9488l-3.1744 1.0752-3.2 1.0496h-3.1744l-3.1744 1.0752-2.1248 2.1248-2.1248 1.0496-3.1744 1.0752-1.0496 1.0496-2.1248 1.0752-2.1248 1.0496-2.0992 3.2-1.0752 1.0496-1.0496 2.1248-1.0752 2.1248-1.0496 3.1744-1.0496 2.1248V709.9392l-1.0752 2.1248v8.4992l1.0752 2.1248 1.024 3.1744 1.0752 2.1248 1.0752 1.0752 1.0496 2.1248 1.0752 1.0496 2.0992 2.1248 1.0752 1.0752 3.1744 3.1744 4.224 2.1248 4.2496 2.1248 4.2496 2.1248 5.2992 2.1248 5.2992 1.0752 5.2992 2.1248 6.3488 1.0496 6.3488 1.0752 5.2992 1.0496h6.3744l12.6976 2.1248H420.736l5.2992-1.0496h4.224l4.2496-1.0752 7.424-1.0496 4.224-1.0752 5.2992-1.0496 8.4736-4.2496 4.2496-1.0752 3.1744-2.1248 6.3488-3.1744 6.3744-3.2 3.1744-2.1248 3.1744-3.1744 5.2992 1.0496h16.9728l2.0992 1.0752 2.1248 1.0496 4.2496 1.0752 3.1744 1.0496 7.424 2.1248 8.448 3.2 7.424 2.1248 7.424 2.1248 7.424 1.0496 8.4736 1.0752 7.424 1.0496 7.424 1.0752 7.424 1.0496h34.9696l7.424-1.0496 6.3488-1.0752 5.2992-1.0496 6.3488-1.0752 5.2992-1.0496 2.1248-1.0752 3.1744-1.0496 5.2992-2.1248 4.2496-2.1248 4.224-2.1248 3.2-2.1248 3.1744-2.1248 2.1248-1.0752 1.0496-2.1248 2.1248-3.1744 2.1248-3.1744 1.0496-1.0752v-1.0496l1.0496-2.1248 1.0752-2.1248V712.064l-1.0752-2.1248-1.0496-3.1744v-2.1248l-2.1248-2.1248-1.0496-2.1248-2.1248-2.1248-2.1248-2.1248-4.224-4.2496-5.2992-3.1744-5.2992-3.2-5.2992-3.1744-11.6736-6.4-3.1744-2.0992h-1.0496l-1.0752-1.0752 6.3744-6.3744 3.1744-2.1248 2.1248-3.1744 3.1744-6.3744 4.224-5.2992 3.2-5.3248 3.1744-5.2992 4.224-10.624 3.2-9.5488 2.0992-5.3248 1.0752-2.1248 1.0496-2.1248 1.0752-1.0496h1.0496l3.1744 6.3744 3.1744 6.3744 2.1248 3.1744 2.1248 3.2 2.1248 4.2496 2.1248 3.1744 2.0992 2.1248 1.0752 2.1248 2.1248 1.0496 1.024 1.0752h1.0752l2.1248 2.1248H713.216l1.0752-1.0752 2.0992-1.0496 1.0752-1.0752 2.1248-2.1248 1.024-2.1248 2.1504-1.0496 1.0496-2.1248 1.0496-2.1248 1.0752-3.1744 1.0496-2.1248 1.0752-6.4 2.0992-6.3488v-6.4l1.0752-4.224V589.952l-1.0752-8.4992z" fill="#488aff" p-id="7551"></path></svg>