<?xml version="1.0" standalone="no"?><!DOCTYPE svg PUBLIC "-//W3C//DTD SVG 1.1//EN" "http://www.w3.org/Graphics/SVG/1.1/DTD/svg11.dtd"><svg class="icon" width="20px" height="20.00px" viewBox="0 0 1024 1024" version="1.1" xmlns="http://www.w3.org/2000/svg"><path fill="#dedede" d="M512 0C230.4 0 0 230.4 0 512s230.4 512 512 512 512-230.4 512-512S793.6 0 512 0zM646.4 729.6c6.4 6.4 6.4 19.2 0 25.6C640 761.6 640 768 633.6 768s-12.8 0-12.8-6.4L371.2 512l249.6-249.6C627.2 256 640 256 646.4 262.4c6.4 6.4 6.4 19.2 0 25.6L428.8 512 646.4 729.6z" /></svg>