<?xml version="1.0" standalone="no"?><!DOCTYPE svg PUBLIC "-//W3C//DTD SVG 1.1//EN" "http://www.w3.org/Graphics/SVG/1.1/DTD/svg11.dtd"><svg class="icon" width="20px" height="20.00px" viewBox="0 0 1024 1024" version="1.1" xmlns="http://www.w3.org/2000/svg"><path fill="#ffffff" d="M953.6 422.4C953.6 403.2 940.8 384 908.8 384c-32 0-70.4-25.6-89.6-44.8-19.2-25.6-32-76.8-12.8-108.8 19.2-32-6.4-64-12.8-70.4-6.4-6.4-96-57.6-121.6-64C640 76.8 614.4 96 608 102.4 608 102.4 569.6 147.2 524.8 153.6c-38.4 6.4-64-25.6-102.4-51.2C384 70.4 358.4 89.6 352 96 339.2 102.4 243.2 153.6 243.2 153.6 230.4 160 211.2 185.6 224 224c12.8 32 12.8 51.2 0 83.2C204.8 358.4 153.6 377.6 134.4 384 115.2 384 89.6 371.2 70.4 416 57.6 460.8 64 569.6 70.4 601.6c6.4 32 25.6 44.8 51.2 38.4 19.2 0 64 12.8 89.6 44.8 32 44.8 25.6 89.6 12.8 115.2s0 57.6 12.8 64 70.4 38.4 108.8 57.6c32 19.2 57.6 6.4 70.4-6.4 6.4-6.4 57.6-57.6 96-57.6 44.8 0 83.2 38.4 102.4 57.6 19.2 19.2 51.2 19.2 64 12.8 12.8-6.4 70.4-38.4 102.4-57.6 25.6-12.8 44.8-32 32-70.4-12.8-38.4-12.8-64 0-102.4 12.8-32 57.6-64 89.6-64 32 0 51.2-6.4 57.6-44.8C966.4 537.6 960 441.6 953.6 422.4zM902.4 588.8C902.4 588.8 902.4 588.8 902.4 588.8c-6.4 0-6.4 0-6.4 0-51.2 6.4-115.2 44.8-134.4 96-19.2 51.2-19.2 89.6-6.4 134.4 0 0 0 0 0 0 0 0-6.4 6.4-12.8 6.4-25.6 12.8-76.8 44.8-96 51.2 0 0 0 0 0 0 0 0-6.4 0-6.4 0-19.2-19.2-70.4-70.4-140.8-70.4 0 0 0 0 0 0-44.8 0-89.6 38.4-121.6 70.4 0 0 0 0 0 0 0 0 0 0 0 0 0 0-6.4 0-12.8-6.4-32-12.8-76.8-38.4-96-51.2 0 0 0 0 0-6.4 12.8-25.6 32-89.6-19.2-166.4-32-44.8-89.6-70.4-128-70.4C121.6 576 115.2 544 115.2 512c0-51.2 6.4-70.4 6.4-76.8 0 0 0 0 0 0 6.4 0 12.8 0 19.2 0 32-6.4 108.8-38.4 134.4-108.8 12.8-38.4 19.2-70.4 0-115.2 0-6.4 0-6.4 0-12.8 32-19.2 96-51.2 102.4-57.6 0 0 0 0 0 0 0 0 6.4 0 6.4 0 0 0 0 0 6.4 0 38.4 32 76.8 64 128 64 6.4 0 6.4 0 12.8 0 38.4-6.4 76.8-25.6 115.2-64 0 0 6.4 0 6.4 0 12.8 6.4 57.6 32 76.8 44.8C742.4 192 748.8 192 755.2 198.4c0 0 0 0 0 0 0 0 0 0 0 0-25.6 57.6-12.8 128 19.2 166.4 25.6 32 76.8 64 128 64C908.8 454.4 915.2 544 902.4 588.8zM512 358.4C428.8 358.4 358.4 428.8 358.4 512s70.4 153.6 153.6 153.6c83.2 0 153.6-70.4 153.6-153.6S595.2 358.4 512 358.4zM512 614.4C454.4 614.4 409.6 569.6 409.6 512S454.4 409.6 512 409.6c57.6 0 102.4 44.8 102.4 102.4S569.6 614.4 512 614.4z" /></svg>