<?xml version="1.0" standalone="no"?><!DOCTYPE svg PUBLIC "-//W3C//DTD SVG 1.1//EN" "http://www.w3.org/Graphics/SVG/1.1/DTD/svg11.dtd"><svg t="1531062836373" class="icon" style="" viewBox="0 0 1049 1024" version="1.1" xmlns="http://www.w3.org/2000/svg" p-id="7426" xmlns:xlink="http://www.w3.org/1999/xlink" width="32.78125" height="32"><defs><style type="text/css"></style></defs><path d="M530.4832 1022.5152c-275.968 0-499.6608-223.7184-499.6608-499.6864C30.8224 246.8608 254.5152 23.168 530.4832 23.168c275.968 0 499.6864 223.6928 499.6864 499.6608 0 275.968-223.7184 499.6864-499.6864 499.6864z m140.7744-518.5024c-10.1632-0.9728-19.3792-6.7584-12.6464-18.7136 6.7584-11.9552 19.2-46.7456-4.736-71.2448-23.936-24.576-76.2624-15.2832-113.28 0.5888-36.9408 15.872-34.944 4.8128-33.792-6.0672 1.2288-11.4688 21.1712-75.5712-39.808-83.3024-79.872-10.0864-182.2976 91.904-218.4704 150.7072-54.7072 88.8064-46.08 148.864-46.08 148.864h0.384c6.5536 82.9184 124.8768 148.9664 269.8752 148.9664 124.672 0 229.6832-48.896 260.736-115.3536 0 0 0.1024-0.2816 0.384-0.768 3.2256-7.168 5.6832-14.4128 7.2192-21.9648 4.352-17.8432 7.68-43.6992-0.4864-69.1968-14.5152-45.056-59.136-61.5424-69.2992-62.5152z m-216.4992 233.5232c-103.2192 0-186.9568-57.216-186.9568-127.7696 0-70.5792 83.6352-127.7952 186.9568-127.7952 103.2192 0 186.9568 57.216 186.9568 127.7952 0 70.656-83.7376 127.7696-186.9568 127.7696z m-17.28-208.9216c-55.0912 0-99.712 40.2688-99.712 90.0608 0 49.792 44.6208 90.0608 99.712 90.0608 55.0656 0 99.6864-40.2688 99.6864-90.0608 0-49.792-44.6208-90.0608-99.6864-90.0608z m-32.5632 148.5568c-19.2768 0-34.944-16.1536-34.944-36.0448 0-19.8912 15.6672-36.096 34.944-36.096 19.2512 0 34.9184 16.2048 34.9184 36.096 0 19.8912-15.6672 36.0448-34.9184 36.0448z m65.3056-64.9728c-4.1728 7.552-12.6208 10.7008-18.7904 6.9632-6.1696-3.6352-7.68-12.7488-3.5072-20.2752 4.1728-7.552 12.6208-10.7008 18.7904-6.9632 6.1696 3.712 7.68 12.8256 3.5072 20.2752z m238.72-157.8752c1.8944 0.896 3.8912 1.28 5.888 1.28a15.104 15.104 0 0 0 13.952-9.6c3.8912-9.4976 5.888-19.6096 5.888-30.08 0-42.5472-33.536-77.1328-74.7264-77.1328-10.0608 0-19.84 2.048-29.056 6.0672-7.68 3.328-11.2896 12.544-8.064 20.5824a15.104 15.104 0 0 0 19.9424 8.3456 43.776 43.776 0 0 1 17.28-3.6352c24.4992 0 44.3392 20.5824 44.3392 45.7728 0 6.144-1.152 12.1344-3.5072 17.8176a15.7696 15.7696 0 0 0 8.064 20.5824z m-49.8432-211.7632c-16.9984 0-33.792 2.56-49.9456 7.424a23.7056 23.7056 0 0 0-15.3856 29.2352 22.7328 22.7328 0 0 0 28.288 15.872 127.488 127.488 0 0 1 37.0432-5.504c71.5008 0 129.6896 60.0832 129.6896 133.888 0 13.2096-1.8944 26.368-5.504 38.912-3.584 12.416 3.1488 25.5488 15.2064 29.2864a22.272 22.272 0 0 0 6.656 0.9728 23.04 23.04 0 0 0 21.8368-16.64 187.648 187.648 0 0 0 7.5008-52.5312c-0.1024-99.7632-78.72-180.9152-175.3856-180.9152z" fill="#EC4731" p-id="7427"></path></svg>