<?xml version="1.0" standalone="no"?><!DOCTYPE svg PUBLIC "-//W3C//DTD SVG 1.1//EN" "http://www.w3.org/Graphics/SVG/1.1/DTD/svg11.dtd"><svg class="icon" width="25px" height="25.00px" viewBox="0 0 1024 1024" version="1.1" xmlns="http://www.w3.org/2000/svg"><path fill="#ffffff" d="M908.234905 907.86498c0.180102-0.645706 0.756223-1.290389 0.756223-1.937119 0-1.149173-0.756223-2.279926-1.333368-3.390213-2.036379-16.083304-5.698792-31.983435-12.177344-46.917566-12.490475-30.267351-35.919071-54.783721-62.826907-72.804143-53.212946-36.806277-118.087489-50.366108-173.942611-82.147952-18.61394-11.320836-37.442774-25.970488-44.747133-47.359634-3.430122-29.300326-2.210341-58.882062-2.140757-88.324628 9.930163-7.525394 16.740266-18.159592 22.712281-28.875654 12.4301-22.842241 21.086248-47.783283 24.658609-73.55218 9.060353-1.755993 17.042141-7.243985 22.127973-14.911618 9.624195-14.305821 13.085016-31.762401 14.709003-48.631604 1.462305-14.851243-4.450359-30.209022-16.324804-39.449477 14.72026-48.934502 24.970718-100.390431 19.653619-151.665235-3.086291-30.509874-13.751189-61.727876-36.887119-82.934874-15.889899-14.71105-37.058011-22.297842-58.134025-25.505907-5.186116-7.748475-11.68411-14.68956-19.716041-19.473517-21.713534-13.358239-47.845705-16.748453-72.866564-17.272385-44.262086 0.686638-90.805122 8.132214-127.359666 34.788318-18.272155 13.115716-32.861432 31.115672-42.547025 51.376111-11.916401 24.77936-16.930601 52.404534-18.071587 79.726809-1.75497 44.212968 6.04467 88.202854 16.730033 130.961704-11.219529 8.736988-17.2335 23.023366-16.46602 37.148062 0.876973 14.004969 3.672646 28.049846 9.292644 40.964994 4.973268 11.864212 14.528901 22.598694 27.685549 24.941042 3.37998 24.335245 11.603269 47.88459 23.13286 69.556169 6.739495 12.046361 14.065344 24.376177 25.336038 32.791847 0.020466 29.460985 1.220804 59.063187-2.218528 88.343047-9.052167 25.910113-33.689287 41.590234-56.694233 53.918004-50.28629 25.344225-105.686041 39.833217-153.763013 69.576635-20.874423 13.337773-40.721447 29.138644-55.350632 49.317219-15.749706 21.449521-24.599258 47.056736-28.281113 73.28919-2.109034 2.140757-3.572362 4.298909-3.572362 6.51846 0 1.795902 0.735757 3.570315 2.149966 5.306866-0.110517 1.292436-0.38374 2.541893-0.464581 3.834328 1.654686 0 3.319605 0 4.974291 0 33.55728 24.012903 196.574051 42.275849 393.036561 42.275849 196.59247 0 359.668593-18.262946 393.075447-42.335201 2.198062 0 4.409426 0 6.609535 0C908.798746 912.62847 908.475382 910.265656 908.234905 907.86498z" /></svg>
