<?xml version="1.0" standalone="no"?><!DOCTYPE svg PUBLIC "-//W3C//DTD SVG 1.1//EN" "http://www.w3.org/Graphics/SVG/1.1/DTD/svg11.dtd"><svg class="icon" width="20px" height="20.00px" viewBox="0 0 1024 1024" version="1.1" xmlns="http://www.w3.org/2000/svg"><path fill="#49afcd" d="M265.6 599.68a350.72 350.72 0 0 0 246.016 100.288 350.72 350.72 0 0 0 246.848-101.12 32 32 0 0 0-44.928-45.632 286.72 286.72 0 0 1-201.92 82.752A286.72 286.72 0 0 1 310.4 553.92a32 32 0 0 0-44.8 45.696zM512 544a224 224 0 1 1 0-448 224 224 0 0 1 0 448z m0-64a160 160 0 1 0 0-320 160 160 0 0 0 0 320zM512 886.016H129.472c10.432-112.576 75.008-220.928 170.112-283.264a32 32 0 0 0-35.136-53.504C142.464 629.248 64 772.608 64 918.016v32h896v-32a440.512 440.512 0 0 0-200.448-368.768 32 32 0 0 0-35.136 53.504 377.024 377.024 0 0 1 170.24 283.264H512z" /></svg>
